<?xml version="1.0" encoding="UTF-8"?>
<!DOCTYPE svg PUBLIC "-//W3C//DTD SVG 1.1//EN" "http://www.w3.org/Graphics/SVG/1.1/DTD/svg11.dtd">
<!-- Creator: CorelDRAW (Evaluation Version) -->
<svg xmlns="http://www.w3.org/2000/svg" xml:space="preserve" width="8.5in" height="11in" version="1.1" style="shape-rendering:geometricPrecision; text-rendering:geometricPrecision; image-rendering:optimizeQuality; fill-rule:evenodd; clip-rule:evenodd"
viewBox="0 0 8500 11000"
 xmlns:xlink="http://www.w3.org/1999/xlink"
 xmlns:xodm="http://www.corel.com/coreldraw/odm/2003">
 <defs>
  <style type="text/css">
   <![CDATA[
    .fil0 {fill:#038A2C}
    .fil3 {fill:#1D1100}
    .fil1 {fill:#26A129}
    .fil2 {fill:#53AA24}
   ]]>
  </style>
 </defs>
 <g id="Layer_x0020_1">
  <metadata id="CorelCorpID_0Corel-Layer"/>
  <image x="2756.94" y="4722.22" width="2986.11" height="1555.55" xlink:href="ananta_logo_Images/ananta_logo_ImgID1.png"/>
  <g id="_345724040">
   <path class="fil0" d="M3548.61 6040.82l-53.96 8.89c51.59,-162.27 82.31,-302.07 11.98,-479.72 -74.61,-188.48 -157.52,-196.87 -256.13,-319.99 -151.45,-53.16 -217.92,-300 -271.34,-319.44 0,307.92 -50.6,411.79 146.54,659.01 157.48,197.49 236.88,267.9 353.46,493.76l69.44 -42.51z"/>
   <path class="fil1" d="M3250.51 5250c98.61,123.12 181.52,131.51 256.13,319.99 70.32,177.65 39.6,317.45 -11.98,479.72l53.96 -8.89 69.44 -80.37 -30.09 -13.56c289.65,-390.42 -104.63,-691.61 -92.32,-863.56 -74.58,67.72 -72.04,-200.73 -72.04,-236.11 -91.03,25.04 -130.4,356.61 -173.1,402.78z"/>
   <path class="fil2" d="M3495.65 5083.33c-12.31,171.95 381.97,473.13 92.32,863.56l30.09 13.56c259.32,-210.52 145.37,-557.36 59.37,-783.7 -52.09,-137.09 -29.3,-178.98 -17.7,-315.63 -70.45,19.07 -122.48,156.74 -164.07,222.22z"/>
   <path class="fil3" d="M3863.03 6053.47l-120.12 -39.17c49.25,-74.64 109.14,-164.98 208.48,-167.09l-88.36 206.25zm366.13 -25.7l50.67 -163.96c-107.02,6.04 -44.2,127.01 -134,191.74l0 -250c-83.56,2.02 -33.6,-16.6 -120.27,157.51 -26.91,54.05 -69.8,143.01 -115.84,175.82 -0.26,-141.59 109.07,-247.36 69.44,-333.33 -71.88,-33.24 -150.89,26.7 -196.72,81.06 -75.15,89.13 -54.76,127.5 -178.28,127.27 12.82,111.16 48.25,-20.1 30.78,74.51 -10.39,56.24 -49.61,39.54 -16.89,92.16 52.14,-19.16 48.03,-58.37 86.91,-107.54 170.37,-20.37 112.92,75.11 204.76,121.43 82.58,-22.35 140.35,-202.57 194.44,-263.89 0,80.73 -19,192.54 13.89,263.89 63.43,-41.63 63.83,-113.07 111.11,-166.67z"/>
   <path class="fil3" d="M4506.94 6055.56l-123.26 -33.58c5.82,-78.1 107.16,-173.11 192.71,-174.75 -19.16,83.73 -67.31,107.43 -69.44,208.33zm-277.78 -27.78l53.17 35.73 -50.67 103.08c57.06,19.85 69.21,-52.85 108.62,-97.15 193.13,-0.36 106.53,67.29 194.44,125 100.56,-27.67 108.48,-217.4 194.44,-250l0 250c64.73,-17.81 165.23,-265.25 166.67,-333.33 -58.76,6.37 -47.08,19.3 -68.02,84.76 -12.95,40.46 -21.87,70.78 -56.98,95.8l0 -236.11c-98.9,2.4 -45.3,21.56 -122.17,155.61 -36.27,63.26 -69.67,128.09 -113.95,177.72 0.11,-119.69 112.6,-259.72 82.15,-318.25 -67.85,-68.73 -139.51,5.96 -197.07,64.44 -36.87,37.45 -44.55,56.41 -74.41,92.25 -60.88,73.08 -33,12.1 -116.21,50.45z"/>
   <path class="fil3" d="M5394.64 6056.74l-108.39 -34.59c16.8,-70.01 112.27,-167.93 192.91,-174.93l-56.81 151.33c-4.19,10.9 -7.09,19.53 -12.11,30.22 -14.08,29.93 -3.03,10.23 -15.6,27.97zm-221.03 -42.86c17.7,-73.04 62.57,-131.17 69.44,-208.33 -97.28,0 -274.9,24.59 -320.63,112.3 24.16,41.07 46.97,71.39 88.09,57.94 4.89,-34.88 -1.35,-15.13 -28.97,-54.36 45.68,-36.66 133.63,-59.08 192.06,-60.32 -7.55,86.96 -159.33,312.23 -157.54,338.09 104.98,33.24 61.78,-134.01 171.43,-143.65 -18.41,75.97 -40.07,41.71 -41.67,125 81.4,-22.04 37.74,-62.95 111.11,-111.11 183.06,3.88 101.26,89.54 180.56,111.11 0,-159.59 100.85,-283.17 93.65,-357.54 -74.87,-59.2 -137.8,-9.6 -194.79,48.07 -62.7,63.46 -79.49,141.2 -162.75,142.8z"/>
  </g>
 </g>
</svg>
