<?xml version="1.0" encoding="UTF-8"?>
<!DOCTYPE svg PUBLIC "-//W3C//DTD SVG 1.1//EN" "http://www.w3.org/Graphics/SVG/1.1/DTD/svg11.dtd">
<!-- Creator: CorelDRAW (Evaluation Version) -->
<svg xmlns="http://www.w3.org/2000/svg" xml:space="preserve" width="8.5in" height="11in" version="1.1" style="shape-rendering:geometricPrecision; text-rendering:geometricPrecision; image-rendering:optimizeQuality; fill-rule:evenodd; clip-rule:evenodd"
viewBox="0 0 8500 11000"
 xmlns:xlink="http://www.w3.org/1999/xlink"
 xmlns:xodm="http://www.corel.com/coreldraw/odm/2003">
 <defs>
  <style type="text/css">
   <![CDATA[
    .fil0 {fill:#038A2C}
    .fil1 {fill:#26A129}
    .fil2 {fill:#53AA24}
   ]]>
  </style>
 </defs>
 <g id="Layer_x0020_1">
  <metadata id="CorelCorpID_0Corel-Layer"/>
  <g id="_445315912">
   <path class="fil0" d="M3212.33 5600.4l-51.12 8.43c51.59,-162.27 82.31,-302.07 11.98,-479.72 -74.61,-188.48 -157.52,-196.87 -256.13,-319.99 -151.45,-53.16 -217.92,-300 -271.34,-319.44 0,307.92 -50.6,411.79 146.54,659.01 157.48,197.49 236.88,267.9 353.46,493.76l62.7 -38.38 3.91 -3.66z"/>
   <path class="fil1" d="M2917.07 4809.11c98.61,123.12 181.52,131.51 256.13,319.99 70.32,177.65 39.6,317.45 -11.98,479.72l51.12 -8.43c3.21,-2.95 6.5,-5.83 9.88,-8.62l62.41 -72.22 -30.09 -13.56c289.65,-390.42 -104.63,-691.61 -92.32,-863.56 -74.58,67.72 -72.04,-200.73 -72.04,-236.11 -91.03,25.04 -130.4,356.61 -173.1,402.78z"/>
   <path class="fil2" d="M3162.21 4642.45c-12.31,171.95 381.97,473.13 92.32,863.56l30.09 13.56c259.32,-210.52 145.37,-557.36 59.37,-783.7 -52.09,-137.09 -29.3,-178.98 -17.7,-315.63 -70.45,19.07 -122.48,156.74 -164.07,222.22z"/>
  </g>
 </g>
</svg>
